<svg width="24" height="24" viewBox="0 0 24 24" fill="none" xmlns="http://www.w3.org/2000/svg">
<path fill-rule="evenodd" clip-rule="evenodd" d="M3 13.5C3 9.36 6.36 6 10.5 6C14.64 6 18 9.36 18 13.5C18 17.64 14.64 21 10.5 21C6.36 21 3 17.64 3 13.5ZM5 13.6C5 16.687 7.513 19.2 10.6 19.2C13.687 19.2 16.2 16.687 16.2 13.6C16.2 10.513 13.687 8 10.6 8C7.513 8 5 10.513 5 13.6Z" fill="#0C2722"/>
<path d="M14.5 13.5C14.5 15.7091 12.7091 17.5 10.5 17.5C8.29086 17.5 6.5 15.7091 6.5 13.5C6.5 11.2909 8.29086 9.5 10.5 9.5" stroke="#0C2722"/>
<path d="M17.4703 14.531C17.7631 14.823 18.2369 14.823 18.5297 14.531L22.5297 10.541C22.7446 10.3266 22.8091 10.0039 22.6931 9.72342C22.5771 9.44294 22.3035 9.26 22 9.26L19.75 9.26L19.75 3C19.75 2.58579 19.4142 2.25 19 2.25L17 2.25C16.5858 2.25 16.25 2.58579 16.25 3L16.25 9.26L14 9.26C13.6965 9.26 13.4229 9.44293 13.3069 9.72342C13.1909 10.0039 13.2554 10.3266 13.4703 10.541L17.4703 14.531Z" fill="#0C2722" stroke="white" stroke-width="1.5" stroke-linejoin="round"/>
</svg>
