<svg width="24" height="24" viewBox="0 0 24 24" fill="none" xmlns="http://www.w3.org/2000/svg">
<path fill-rule="evenodd" clip-rule="evenodd" d="M3 13.5C3 9.36 6.36 6 10.5 6C14.64 6 18 9.36 18 13.5C18 17.64 14.64 21 10.5 21C6.36 21 3 17.64 3 13.5ZM5 13.6C5 16.687 7.513 19.2 10.6 19.2C13.687 19.2 16.2 16.687 16.2 13.6C16.2 10.513 13.687 8 10.6 8C7.513 8 5 10.513 5 13.6Z" fill="#0C2722"/>
<path d="M14.5 13.5C14.5 15.7091 12.7091 17.5 10.5 17.5C8.29086 17.5 6.5 15.7091 6.5 13.5C6.5 11.2909 8.29086 9.5 10.5 9.5" stroke="#0C2722"/>
<path d="M18.5297 2.46901C18.2369 2.177 17.7631 2.177 17.4703 2.46901L13.4703 6.45901C13.2554 6.67336 13.1909 6.99609 13.3069 7.27658C13.4229 7.55707 13.6965 7.74 14 7.74H16.25V14C16.25 14.4142 16.5858 14.75 17 14.75H19C19.4142 14.75 19.75 14.4142 19.75 14V7.74H22C22.3035 7.74 22.5771 7.55707 22.6931 7.27658C22.8091 6.99609 22.7446 6.67336 22.5297 6.45901L18.5297 2.46901Z" fill="#0C2722" stroke="white" stroke-width="1.5" stroke-linejoin="round"/>
</svg>
