<svg width="16" height="17" viewBox="0 0 16 17" fill="none" xmlns="http://www.w3.org/2000/svg">
<g id="Icons / 16px/Block">
<path id="icon/content/archive_24px" fill-rule="evenodd" clip-rule="evenodd" d="M13.6933 3.98668L12 2.5C11.82 2.27333 11.5187 2.13333 11.3333 2.13333H4.66667C4.2855 2.13333 4.08 2.27333 3.89333 2.5L2.30667 3.98668C2.11333 4.21335 2 4.51335 2 4.83335V13.1667C2 13.9 2.6 14.5 3.33333 14.5H12.6667C13.4 14.5 14 13.9 14 13.1667V4.83335C14 4.51335 13.8867 4.21335 13.6933 3.98668ZM5.06671 3.16668H10.9334L12.38 4.48001H3.62667L5.06671 3.16668ZM3.33333 5.83335V13.1667H12.6667V5.83335H3.33333Z" fill="#0D7664"/>
</g>
</svg>
