<svg width="16" height="17" viewBox="0 0 16 17" fill="none" xmlns="http://www.w3.org/2000/svg">
<g id="Icons / 16px/Coin">
<path id="icon/editor/monetization_on_24px" fill-rule="evenodd" clip-rule="evenodd" d="M1.33331 8.54676C1.33331 4.86676 4.31998 1.8801 7.99998 1.8801C11.68 1.8801 14.6666 4.86676 14.6666 8.54676C14.6666 12.2268 11.68 15.2134 7.99998 15.2134C4.31998 15.2134 1.33331 12.2268 1.33331 8.54676ZM2.66665 8.54676C2.66665 11.4868 5.05998 13.8801 7.99998 13.8801C10.94 13.8801 13.3333 11.4868 13.3333 8.54676C13.3333 5.60676 10.94 3.21343 7.99998 3.21343C5.05998 3.21343 2.66665 5.60676 2.66665 8.54676Z" fill="#0D7664"/>
<path id="Ellipse 288" d="M8 12.5468C5.79086 12.5468 4 10.7559 4 8.54675C4 6.33761 5.79086 4.54675 8 4.54675" stroke="#0D7664" stroke-width="1.3"/>
<path id="Ellipse 289" d="M12 8.54675C12 10.7559 10.2091 12.5468 8 12.5468C5.79086 12.5468 4 10.7559 4 8.54675" stroke="#0D7664" stroke-width="1.3"/>
</g>
</svg>
