<svg width="16" height="17" viewBox="0 0 16 17" fill="none" xmlns="http://www.w3.org/2000/svg">
<g id="Icons / 16px/Community">
<path id="icon/social/publicon/social/24px" fill-rule="evenodd" clip-rule="evenodd" d="M7.99999 1.8801C4.31999 1.8801 1.33333 4.86676 1.33333 8.54676C1.33333 12.2268 4.31999 15.2134 7.99999 15.2134C11.68 15.2134 14.6667 12.2268 14.6667 8.54676C14.6667 4.86676 11.68 1.8801 7.99999 1.8801ZM2.66666 8.54676C2.66666 8.1401 2.71999 7.7401 2.80666 7.3601L5.99333 10.5468V11.2134C5.99333 11.9468 6.59333 12.5468 7.32666 12.5468V13.8334C4.70666 13.5001 2.66666 11.2601 2.66666 8.54676ZM10.66 11.2134C11.26 11.2134 11.7533 11.6068 11.9267 12.1468C12.7933 11.2001 13.3333 9.93343 13.3333 8.54676C13.3333 6.31343 11.9467 4.39343 9.99333 3.60676V3.8801C9.99333 4.61343 9.39333 5.21343 8.65999 5.21343H7.32666V6.54676C7.32666 6.91343 7.02666 7.21343 6.65999 7.21343H5.32666V8.54676H9.32666C9.69333 8.54676 9.99333 8.84676 9.99333 9.21343V11.2134H10.66Z" fill="#0D7664"/>
</g>
</svg>
