<svg width="11" height="17" viewBox="0 0 11 17" fill="none" xmlns="http://www.w3.org/2000/svg">
<g id="Group 514">
<path id="Ellipse 290" d="M5 13.6403C3.89543 13.6403 3 12.521 3 11.1403C3 9.75958 3.89543 8.64029 5 8.64029" stroke="#0D7664" stroke-width="1.3"/>
<path id="Ellipse 291" d="M10.35 11.1403C10.35 13.0014 9.78245 14.179 8.95992 14.9021C8.12233 15.6385 6.92203 15.9903 5.5 15.9903C4.07797 15.9903 2.87767 15.6385 2.04008 14.9021C1.21755 14.179 0.65 13.0014 0.65 11.1403C0.65 10.089 1.17748 8.86626 2.08529 7.89716C2.98755 6.93399 4.20041 6.29029 5.5 6.29029C6.79959 6.29029 8.01245 6.93399 8.91471 7.89716C9.82252 8.86626 10.35 10.089 10.35 11.1403Z" stroke="#0D7664" stroke-width="1.3"/>
<path id="Vector 296" d="M2.5 1.64029C0.850758 1.64029 2.49994 4.47363 3.49994 5.64029H7.5C8.33333 4.30696 9.7 1.64029 8.5 1.64029C7.3 1.64029 7.5 2.14029 7 2.64029L4.5 2.6403C4 2.64029 4 1.6403 2.5 1.64029Z" stroke="#0D7664" stroke-width="1.3"/>
<rect id="Rectangle 642" x="2" y="5.64029" width="7" height="1.3" fill="#0D7664"/>
</g>
</svg>
