<svg width="16" height="17" viewBox="0 0 16 17" fill="none" xmlns="http://www.w3.org/2000/svg">
<g id="Icons / 16px/Info">
<path id="icon/action/info_24px" fill-rule="evenodd" clip-rule="evenodd" d="M7.99992 1.83333C4.31992 1.83333 1.33325 4.81999 1.33325 8.49999C1.33325 12.18 4.31992 15.1667 7.99992 15.1667C11.6799 15.1667 14.6666 12.18 14.6666 8.49999C14.6666 4.81999 11.6799 1.83333 7.99992 1.83333ZM7.33325 5.16666V6.49999H8.66659V5.16666H7.33325ZM7.33325 7.83333V11.8333H8.66659V7.83333H7.33325ZM2.66659 8.5C2.66659 11.44 5.05992 13.8333 7.99992 13.8333C10.9399 13.8333 13.3333 11.44 13.3333 8.5C13.3333 5.55999 10.9399 3.16666 7.99992 3.16666C5.05992 3.16666 2.66659 5.55999 2.66659 8.5Z" fill="#0D7664"/>
</g>
</svg>
