<svg width="16" height="17" viewBox="0 0 16 17" fill="none" xmlns="http://www.w3.org/2000/svg">
<g id="Icons / 16px/Time">
<path id="icon/action/schedule_24px" fill-rule="evenodd" clip-rule="evenodd" d="M7.99331 1.8801C4.31331 1.8801 1.33331 4.86676 1.33331 8.54676C1.33331 12.2268 4.31331 15.2134 7.99331 15.2134C11.68 15.2134 14.6666 12.2268 14.6666 8.54676C14.6666 4.86676 11.68 1.8801 7.99331 1.8801ZM7.99998 13.8801C5.05331 13.8801 2.66665 11.4934 2.66665 8.54676C2.66665 5.6001 5.05331 3.21343 7.99998 3.21343C10.9466 3.21343 13.3333 5.6001 13.3333 8.54676C13.3333 11.4934 10.9466 13.8801 7.99998 13.8801ZM7.33331 5.21343H8.33331V8.71343L11.3333 10.4934L10.8333 11.3134L7.33331 9.21343V5.21343Z" fill="#0D7664"/>
</g>
</svg>
