<svg width="24" height="25" viewBox="0 0 24 25" fill="none" xmlns="http://www.w3.org/2000/svg">
<g id="Icons / 24px/Block">
<path id="icon/content/archive_24px" fill-rule="evenodd" clip-rule="evenodd" d="M20.54 5.73001L18 3.49998C17.73 3.15998 17.2781 2.94998 17 2.94998H7C6.42825 2.94998 6.12 3.15998 5.84 3.49998L3.46 5.73001C3.17 6.07001 3 6.52001 3 7.00001V19.5C3 20.6 3.9 21.5 5 21.5H19C20.1 21.5 21 20.6 21 19.5V7.00001C21 6.52001 20.83 6.07001 20.54 5.73001ZM7.60006 4.50001H16.4001L18.57 6.47001H5.44L7.60006 4.50001ZM5 8.50001V19.5H19V8.50001H5Z" fill="#0C2722"/>
</g>
</svg>
