<svg width="24" height="24" viewBox="0 0 15 21" fill="none" xmlns="http://www.w3.org/2000/svg">
<g id="Group 514">
<path id="Ellipse 290" d="M7.00002 16.85C5.56408 16.85 4.40002 15.3949 4.40002 13.6C4.40002 11.805 5.56408 10.35 7.00002 10.35" stroke="#0D7664"/>
<path id="Ellipse 291" d="M13.8 13.5999C13.8 15.9862 13.0736 17.4701 12.0455 18.3739C10.9943 19.2981 9.47556 19.7499 7.65 19.7499C5.82443 19.7499 4.30571 19.2981 3.25444 18.3739C2.22636 17.4701 1.5 15.9862 1.5 13.5999C1.5 12.2807 2.1647 10.7274 3.32399 9.48985C4.47475 8.26141 6.0128 7.44995 7.65 7.44995C9.28719 7.44995 10.8252 8.26141 11.976 9.48985C13.1353 10.7274 13.8 12.2807 13.8 13.5999Z" stroke="#0D7664" stroke-width="2"/>
<path id="Vector 296" d="M3.74996 1.25001C1.60595 1.25 3.74989 4.93334 5.04989 6.45H10.25C11.3333 4.71667 13.11 1.25001 11.55 1.25001C9.98996 1.25001 10.25 1.9 9.59996 2.55L6.34996 2.55001C5.69996 2.55 5.69997 1.25002 3.74996 1.25001Z" stroke="#0D7664" stroke-width="2"/>
<rect id="Rectangle 642" x="3.09998" y="6.44995" width="9.1" height="1.69" fill="#0D7664"/>
</g>
</svg>
